# xmcd
#
# Track frame offsets: 
#        182
#        18037
#        34990
#        51195
#        70277
#        88285
#        109697
#        122992
#        150320
#        165292
#
# Disc length: 2325 seconds
#
# Revision: 3
# Processed by: cddbd v1.5.2PL0 Copyright (c) Steve Scherf et al.
# Submitted via: ExactAudioCopyFreeDBPlugin 1.0
#
DISCID=7809130a
DTITLE=Martyna Jakubowicz - Wschodnia wioska
DYEAR=1993
DGENRE=Ballad
TTITLE0=Gorąca sień
TTITLE1=Młode wino
TTITLE2=Wiedza jest grzechem
TTITLE3=Ludzie błądzą
TTITLE4=Na jednej skaczę  nodze
TTITLE5=Nocny problem Jana H.
TTITLE6=Złoty przez palce piach
TTITLE7=Wschodnia wioska
TTITLE8=Wróżba nie służba
TTITLE9=Martynella słodka
EXTD=
EXTT0=
EXTT1=
EXTT2=
EXTT3=
EXTT4=
EXTT5=
EXTT6=
EXTT7=
EXTT8=
EXTT9=
PLAYORDER=
